<svg width="34" height="34" viewBox="0 0 34 34" fill="none" xmlns="http://www.w3.org/2000/svg">
<g clip-path="url(#clip0_47_288)">
<path fill-rule="evenodd" clip-rule="evenodd" d="M17.0051 0C26.39 0 34.0102 7.60996 34.0102 17.0051C34.0102 26.39 26.4002 34.0102 17.0051 34.0102C7.62016 34.0102 0 26.4002 0 17.0051C0 7.62016 7.60996 0 17.0051 0ZM13.0267 7.67117H20.9835C23.9724 7.67117 26.4104 10.0888 26.4104 13.0267V20.9631C26.4104 23.9112 23.9724 26.3186 20.9835 26.3186H13.0267C10.0378 26.3186 7.59976 23.9112 7.59976 20.9631V13.0267C7.59976 10.0786 10.048 7.67117 13.0267 7.67117ZM16.9541 11.9658C19.8614 11.9658 22.2178 14.3222 22.2178 17.2295C22.2178 20.1368 19.8614 22.4932 16.9541 22.4932C14.0468 22.4932 11.6904 20.1368 11.6904 17.2295C11.6904 14.3222 14.0468 11.9658 16.9541 11.9658ZM16.9541 13.7408C18.8719 13.7408 20.4326 15.3015 20.4326 17.2193C20.4326 19.1371 18.8719 20.6979 16.9541 20.6979C15.0261 20.6979 13.4755 19.1371 13.4755 17.2193C13.4755 15.3015 15.0363 13.7408 16.9541 13.7408ZM22.0444 11.2313C22.5137 11.2313 22.9013 11.6088 22.9013 12.0882C22.9013 12.5575 22.5239 12.9451 22.0444 12.9451C21.5752 12.9451 21.1875 12.5677 21.1875 12.0882C21.1875 11.619 21.565 11.2313 22.0444 11.2313ZM13.6796 9.19112H20.3306C22.8299 9.19112 24.8701 11.2211 24.8701 13.7102V20.402C24.8701 22.8911 22.8299 24.9211 20.3306 24.9211H13.6796C11.1803 24.9211 9.14011 22.8911 9.14011 20.402V13.7102C9.14011 11.2211 11.1803 9.19112 13.6796 9.19112Z" fill="white"/>
</g>
<defs>
<clipPath id="clip0_47_288">
<rect width="34" height="34" fill="white"/>
</clipPath>
</defs>
</svg>
