<svg width="34" height="30" viewBox="0 0 34 30" fill="none" xmlns="http://www.w3.org/2000/svg">
<path d="M1.07893 2.20465C0.497966 2.20465 0 1.70233 0 1.08837C0 0.502326 0.497966 0 1.07893 0H3.90073C3.9284 0 3.98373 0 4.01139 0C5.00732 0.027907 5.8926 0.223256 6.63954 0.697674C7.46949 1.22791 8.07811 2.03721 8.41009 3.23721C8.41009 3.26512 8.41009 3.29302 8.43775 3.32093L8.7144 4.43721H32.9211C33.5297 4.43721 34 4.93953 34 5.52558C34 5.63721 33.9723 5.74884 33.9447 5.86047L31.1229 17.3302C31.0122 17.8326 30.5696 18.1674 30.0716 18.1674H12.3662C12.7535 19.6186 13.1408 20.4 13.6664 20.7628C14.3027 21.1814 15.4093 21.2093 17.2628 21.1814H17.2905H29.795C30.4036 21.1814 30.8739 21.6837 30.8739 22.2698C30.8739 22.8837 30.3759 23.3581 29.795 23.3581H17.2905C14.9943 23.386 13.5834 23.3302 12.4491 22.5767C11.2872 21.7954 10.6786 20.4558 10.07 18.0279L6.3629 3.87907C6.3629 3.85116 6.3629 3.85116 6.33523 3.82326C6.16924 3.2093 5.8926 2.7907 5.50529 2.56744C5.11798 2.31628 4.59235 2.20465 3.98373 2.20465C3.95606 2.20465 3.9284 2.20465 3.90073 2.20465H1.07893V2.20465ZM26.5582 24.6419C28.0244 24.6419 29.214 25.8419 29.214 27.3209C29.214 28.8 28.0244 30 26.5582 30C25.0919 30 23.9024 28.8 23.9024 27.3209C23.9024 25.8419 25.0919 24.6419 26.5582 24.6419ZM14.9113 24.6419C16.3775 24.6419 17.5671 25.8419 17.5671 27.3209C17.5671 28.8 16.3775 30 14.9113 30C13.4451 30 12.2555 28.8 12.2555 27.3209C12.2555 25.8419 13.4451 24.6419 14.9113 24.6419ZM9.32303 6.61395L11.7852 15.9628H29.2417L31.5378 6.61395H9.32303V6.61395Z" fill="white"/>
</svg>
